<svg id="Layer_1" data-name="Layer 1" xmlns="http://www.w3.org/2000/svg" xmlns:xlink="http://www.w3.org/1999/xlink" viewBox="0 0 795.41 492.69"><defs><style>.cls-1{fill:url(#linear-gradient);}.cls-2{fill:#2b347b;}.cls-3{fill:none;}.cls-4{opacity:0.47;fill:url(#linear-gradient-2);}</style><linearGradient id="linear-gradient" x1="226.53" y1="773.78" x2="756.81" y2="243.51" gradientUnits="userSpaceOnUse"><stop offset="0.52" stop-color="#399ac4"/><stop offset="0.59" stop-color="#3892bf"/><stop offset="0.69" stop-color="#357eb0" stop-opacity="0.99"/><stop offset="0.81" stop-color="#305c98" stop-opacity="0.97"/><stop offset="0.93" stop-color="#2b347b" stop-opacity="0.95"/></linearGradient><linearGradient id="linear-gradient-2" x1="349.63" y1="385.55" x2="349.63" y2="148.74" gradientUnits="userSpaceOnUse"><stop offset="0" stop-color="#399ac4" stop-opacity="0.39"/><stop offset="0.08" stop-color="#399ac4" stop-opacity="0.38"/><stop offset="0.11" stop-color="#3a9bc4" stop-opacity="0.35"/><stop offset="0.13" stop-color="#3b9bc5" stop-opacity="0.29"/><stop offset="0.15" stop-color="#3d9cc5" stop-opacity="0.2"/><stop offset="0.16" stop-color="#409ec6" stop-opacity="0.09"/><stop offset="0.17" stop-color="#429fc7" stop-opacity="0"/><stop offset="0.35" stop-color="#aed6e7" stop-opacity="0.38"/><stop offset="0.49" stop-color="#fff" stop-opacity="0.67"/></linearGradient></defs><title>MH</title><path class="cls-1" d="M825.76,607Q796,592.36,764,579.7h0l.87-328.17L696.88,223.2l-3.47,1.12V358.51l-35-13.42v.12l-61-24V187.05l-96.86-38.74-88.48,46.55-80.67,167L260.72,240.4l-62,32.53.58,319.64Q191.06,595.79,183,599c-26.82,9.92-57.71,24.33-90.45,40.79C382.48,564.55,650.34,556.6,888,641,872.91,630.3,851.05,618.85,825.76,607Zm-414.4-48c-45.43,1.89-96.27,10.5-150.93,23.85l.87-204.71,75.9,114.06,74.6-133.58Zm281.91,14.75-98.45-14.31,1.3-153.1,97.58,32.09Z" transform="translate(-92.59 -148.31)"/><polygon class="cls-2" points="254.42 180.2 206.88 101.75 168.28 92.55 238.91 213.67 254.42 180.2"/><polygon class="cls-2" points="604.16 74.94 565.84 87.32 565.84 196.79 604.66 211.69 604.16 74.94"/><polygon class="cls-3" points="502.66 391.2 562.51 401.61 562.95 310.1 503.53 289.71 502.66 391.2"/><path class="cls-2" d="M594.82,559.46l98.45,14.31.43-135.32-97.58-32.09Zm60.28-9.54-59.85-10.41L596.12,438l59.42,20.38Z" transform="translate(-92.59 -148.31)"/><path class="cls-3" d="M290.94,427.33l-.43,132.28c39.79-10.66,79.29-18,118.4-20.82l1.3-114.5-36.43,69.39-39-.43Z" transform="translate(-92.59 -148.31)"/><path class="cls-2" d="M411.29,539.29l-.22,20C360.62,562.53,309.35,570,260,583.57l.68-205.77,31.79,46.78L293,559.94A989.43,989.43,0,0,1,411.29,539.29Z" transform="translate(-92.59 -148.31)"/><polygon class="cls-2" points="244.24 344.36 285.52 344.28 319.41 280.02 319.21 210.14 244.24 344.36"/><path class="cls-2" d="M888,641c-25.1-17.62-65.2-37.37-124-61.29l-.3,8.6A981.8,981.8,0,0,1,888,641Z" transform="translate(-92.59 -148.31)"/><path class="cls-2" d="M199.28,600v-7.42c-33.62,12.37-69,28.32-105.52,46.8" transform="translate(-92.59 -148.31)"/><path class="cls-4" d="M501,149.09h0l-.86-.34-88.48,46.55L331,362.27,260.29,240.83l-62,32.53.13,73.6a223.34,223.34,0,0,0,206.73,23.28l6.23-11.15,0,8.68A223.89,223.89,0,0,0,501,298.23Z" transform="translate(-92.59 -148.31)"/></svg>